<svg xmlns="http://www.w3.org/2000/svg" style="display: none;"><symbol id="boy" viewBox="0 0 198.496 198.496"><title>boy</title><g> <rect x="84.55" y="148.231" style="fill:#FDCC9B;" width="29.395" height="32.922"/> <path style="fill:#FCBC85;" d="M84.551,152.108c0,0,12.365,7.874,29.395,6.05v-9.928H84.551V152.108z"/> <ellipse style="fill:#FCBC85;" cx="42.164" cy="97.181" rx="14.343" ry="16.364"/> <ellipse style="fill:#FCBC85;" cx="156.332" cy="97.181" rx="14.343" ry="16.364"/> <path style="fill:#FDCC9B;" d="M156.274,65.925c0-24.103-17.637-41.741-57.026-41.741c-39.389,0-57.026,17.637-57.026,41.741 c0,24.104-4.115,87.597,57.026,87.597C160.389,153.522,156.274,90.029,156.274,65.925z"/> <g> <g> <ellipse style="fill:#3B2519;" cx="71.472" cy="93.262" rx="6.173" ry="6.761"/> <circle style="fill:#FFFFFF;" cx="68.781" cy="90.277" r="1.846"/> </g> <path style="fill:#51362A;" d="M61.597,76.507c2.919,1.46,7.606-4.96,18.335,0.625c1.956,1.018,3.123-8.708-8.377-8.708 C61.597,68.424,59.833,75.626,61.597,76.507z"/> <g> <ellipse style="fill:#3B2519;" cx="127.786" cy="93.262" rx="6.173" ry="6.761"/> <circle style="fill:#FFFFFF;" cx="125.095" cy="90.277" r="1.846"/> </g> <path style="fill:#51362A;" d="M136.899,76.507c-2.919,1.46-7.606-4.96-18.335,0.625c-1.956,1.018-3.123-8.708,8.378-8.708 C136.899,68.424,138.662,75.626,136.899,76.507z"/> </g> <path style="fill:#FCBC85;" d="M99.248,117.043c-6.1,0-9.774-4.556-9.774-2.352c0,2.205,1.764,6.394,9.774,6.394 c8.01,0,9.774-4.189,9.774-6.394C109.022,112.486,105.347,117.043,99.248,117.043z"/> <path style="fill:#FCBC85;" d="M99.248,137.313c-2.11,0-3.381-1.576-3.381-0.813s0.61,2.211,3.381,2.211 c2.771,0,3.38-1.448,3.38-2.211S101.357,137.313,99.248,137.313z"/> <path style="fill:#F7945E;" d="M99.248,131.696c-9.668,0-15.493-3.937-15.493-2.939c0,0.998,2.796,4.924,15.493,4.924 c12.697,0,15.493-3.926,15.493-4.924C114.74,127.759,108.916,131.696,99.248,131.696z"/> </g><path style="fill:#F7941E;" d="M99.248,161.458v37.038H27.821C27.821,183.504,65.444,161.458,99.248,161.458z"/><path style="fill:#F7941E;" d="M99.248,161.458v37.038h71.427C170.675,183.504,133.052,161.458,99.248,161.458z"/><path style="fill:#F36C21;" d="M99.248,161.458c-7.19,0-14.552,1.005-21.689,2.72c0.048,0.063,7.916,10.214,21.689,10.214 c12.754,0,21.233-8.693,22.462-10.03C114.332,162.531,106.698,161.458,99.248,161.458z"/><path style="fill:#FDCC9B;" d="M84.55,162.74c0,0,4.299,5.332,14.697,5.332c10.398,0,14.698-5.332,14.698-5.332 S98.697,157.189,84.55,162.74z"/><path style="fill:#51362A;" d="M146.132,19.041c0,0-21.164-26.896-65.152-16.755C36.993,12.426,33.697,38.882,35.02,64.621 c1.323,25.74,4.85,40.84,9.022,38.974c4.172-1.867,2.001-18.857,2.442-22.778c0.441-3.921,4.409-21.653,31.162-19.007 c26.752,2.646,49.296-7.055,49.296-7.055s9.075,11.471,15.047,13.669c11.934,4.391,8.02,33.67,12.696,33.67 S182.288,34.473,146.132,19.041z"/></symbol><symbol id="girl" viewBox="0 0 206.676 206.676"><title>girl</title><path style="fill:#330C00;" d="M103.485,43.514v160.004c0,0-90.83,9.412-90.83-34.866c0,0,24.397,3.075,19.402-17.273 c-6.332-25.796-2.79-67.574,0-90.408C34.847,38.136,103.485,43.514,103.485,43.514z"/><path style="fill:#330C00;" d="M103.191,43.514v160.004c0,0,90.83,9.412,90.83-34.866c0,0-24.397,3.075-19.402-17.273 c6.332-25.796,2.79-67.574,0-90.408C171.828,38.136,103.191,43.514,103.191,43.514z"/><path style="fill:#00B497;" d="M105.07,179.723v-23.311c0,0,37.002-1.121,37.002,21.274L105.07,179.723z"/><path style="fill:#00B497;" d="M101.9,179.723v-23.311c0,0-37.002-1.121-37.002,21.274L101.9,179.723z"/><g> <g> <rect x="88.788" y="156.41" style="fill:#FDCC9B;" width="29.395" height="32.923"/> <path style="fill:#FCBC85;" d="M88.788,160.288c0,0,12.364,7.874,29.395,6.051v-9.929H88.788V160.288z"/> <ellipse style="fill:#FCBC85;" cx="46.4" cy="105.36" rx="14.343" ry="16.364"/> <ellipse style="fill:#FCBC85;" cx="160.568" cy="105.36" rx="14.343" ry="16.364"/> <path style="fill:#FDCC9B;" d="M160.51,74.104c0-24.104-17.637-41.74-57.025-41.74c-39.39,0-57.026,17.637-57.026,41.74 c0,24.104-4.115,87.597,57.026,87.597C164.626,161.701,160.51,98.209,160.51,74.104z"/> <g> <g> <ellipse style="fill:#3B2519;" cx="75.709" cy="101.442" rx="6.173" ry="6.761"/> <circle style="fill:#FFFFFF;" cx="73.018" cy="98.457" r="1.846"/> </g> <path style="fill:#684B37;" d="M65.834,86.865c2.919,1.117,7.606-3.799,18.336,0.478c1.955,0.78,3.123-6.668-8.378-6.668 C65.834,80.675,64.07,86.189,65.834,86.865z"/> <g> <ellipse style="fill:#3B2519;" cx="132.023" cy="101.442" rx="6.173" ry="6.761"/> <circle style="fill:#FFFFFF;" cx="129.332" cy="98.457" r="1.847"/> </g> <path style="fill:#684B37;" d="M141.135,86.865c-2.919,1.117-7.605-3.799-18.335,0.478c-1.955,0.78-3.123-6.668,8.378-6.668 C141.135,80.675,142.899,86.189,141.135,86.865z"/> </g> <path style="fill:#FCBC85;" d="M103.485,125.223c-6.1,0-9.774-4.557-9.774-2.352c0,2.204,1.764,6.394,9.774,6.394 c8.01,0,9.773-4.189,9.773-6.394C113.258,120.666,109.584,125.223,103.485,125.223z"/> <path style="fill:#FCBC85;" d="M103.485,145.493c-2.11,0-3.381-1.576-3.381-0.813s0.61,2.212,3.381,2.212s3.38-1.449,3.38-2.212 S105.594,145.493,103.485,145.493z"/> <path style="fill:#F7945E;" d="M103.485,139.876c-9.669,0-15.493-3.938-15.493-2.94c0,0.997,2.796,4.924,15.493,4.924 c12.697,0,15.493-3.927,15.493-4.924C118.978,135.939,113.153,139.876,103.485,139.876z"/> </g> <circle style="fill:#F9AA8D;" cx="67.771" cy="123.048" r="8.377"/> <circle style="fill:#F9AA8D;" cx="140.229" cy="123.048" r="8.377"/> </g><path style="fill:#8FD6E7;" d="M103.485,169.638v37.038H39.112C39.112,191.685,69.681,169.638,103.485,169.638z"/><path style="fill:#8FD6E7;" d="M103.485,169.638v37.038h64.372C167.857,191.685,137.289,169.638,103.485,169.638z"/><path style="fill:#F6B1CF;" d="M103.485,204.999v-35.361c-9.417,0-18.551,1.752-26.874,4.544L103.485,204.999z"/><path style="fill:#F6B1CF;" d="M103.485,204.999v-35.361c9.416,0,18.55,1.752,26.874,4.544L103.485,204.999z"/><path style="fill:#F283B4;" d="M103.485,169.638c-6.849,0-13.545,0.939-19.9,2.507c0.905,5.501,4.62,16.787,19.9,16.787 c15.279,0,18.994-11.286,19.899-16.787C117.03,170.576,110.334,169.638,103.485,169.638z"/><path style="fill:#FDCC9B;" d="M88.788,170.92c0,0-0.001,13.239,14.697,13.239c14.697,0,14.697-13.239,14.697-13.239 S102.933,165.368,88.788,170.92z"/><path style="fill:#3ABDAA;" d="M80.992,172.401c0.44-2.861-17.119-0.752-16.976,7.321c0.145,8.073,19.401,14.284,24.692,17.224 c5.291,2.939,14.697,9.729,14.697,9.729s1.764-6.82-6.467-12.082C88.709,189.333,80.404,176.223,80.992,172.401z"/><path style="fill:#3ABDAA;" d="M125.763,172.401c-0.44-2.861,17.119-0.752,16.976,7.321c-0.145,8.073-19.401,14.284-24.692,17.224 c-5.291,2.939-14.697,9.729-14.697,9.729s-1.764-6.82,6.467-12.082C118.046,189.333,126.351,176.223,125.763,172.401z"/><path style="fill:#401900;" d="M103.485,0C37.346,0,28.528,57.747,28.528,100.303c0,42.557,22.031,67.27,39.243,74.172 c0,0-27.485-48.708-13.964-93.8c11.063-36.894,49.678-26,49.678-26s38.613-10.895,49.677,26c13.521,45.092-13.964,93.8-13.964,93.8 c17.213-6.902,39.244-31.615,39.244-74.172C178.442,57.747,169.624,0,103.485,0z"/><path style="fill:#401900;" d="M125.85,64.864c0,0-24.824,12.444-46.746,9.946c-21.921-2.499-30.341,20.228-29.003,35.269 l-7.316-33.476l13.228-26.485l37.698-19.4l35.621,1.646l16.893,14.668l14.344,17.832l10.083,11.739l-4.851,36.126l-10.268,12.349 C155.534,125.078,164.824,78.728,125.85,64.864z"/></symbol><symbol id="man" viewBox="0 0 196.651 196.651"><title>man</title><g> <rect x="83.628" y="146.386" style="fill:#FDCC9B;" width="29.395" height="32.923"/> <path style="fill:#FCBC85;" d="M83.628,150.264c0,0,12.365,7.874,29.395,6.051v-9.929H83.628V150.264z"/> <ellipse style="fill:#FCBC85;" cx="41.242" cy="95.336" rx="14.343" ry="16.364"/> <ellipse style="fill:#FCBC85;" cx="155.409" cy="95.336" rx="14.343" ry="16.364"/> <path style="fill:#FDCC9B;" d="M155.352,64.08c0-24.104-17.637-41.74-57.026-41.74c-39.389,0-57.026,17.637-57.026,41.74 c0,24.104-4.115,87.597,57.026,87.597C159.467,151.677,155.352,88.185,155.352,64.08z"/> <g> <g> <ellipse style="fill:#3B2519;" cx="70.55" cy="91.418" rx="6.173" ry="6.761"/> <circle style="fill:#FFFFFF;" cx="67.859" cy="88.433" r="1.846"/> </g> <path style="fill:#86461B;" d="M60.675,74.662c2.919,1.46,7.606-4.96,18.335,0.625c1.956,1.018,3.123-8.708-8.377-8.708 C60.675,66.579,58.911,73.781,60.675,74.662z"/> <g> <ellipse style="fill:#3B2519;" cx="126.864" cy="91.418" rx="6.173" ry="6.761"/> <circle style="fill:#FFFFFF;" cx="124.173" cy="88.433" r="1.846"/> </g> <path style="fill:#86461B;" d="M135.977,74.662c-2.919,1.46-7.606-4.96-18.335,0.625c-1.956,1.018-3.123-8.708,8.378-8.708 C135.977,66.579,137.74,73.781,135.977,74.662z"/> </g> <path style="fill:#FCBC85;" d="M98.326,115.198c-6.1,0-9.774-4.557-9.774-2.352c0,2.204,1.764,6.393,9.774,6.393 c8.01,0,9.774-4.189,9.774-6.393C108.1,110.642,104.425,115.198,98.326,115.198z"/> <path style="fill:#FCBC85;" d="M98.326,135.469c-2.11,0-3.381-1.576-3.381-0.813c0,0.763,0.61,2.212,3.381,2.212 c2.771,0,3.38-1.449,3.38-2.212C101.706,133.893,100.435,135.469,98.326,135.469z"/> <path style="fill:#F7945E;" d="M98.326,129.852c-9.668,0-15.493-3.937-15.493-2.939c0,0.997,2.796,4.924,15.493,4.924 c12.697,0,15.493-3.927,15.493-4.924C113.818,125.914,107.994,129.852,98.326,129.852z"/> </g><path style="fill:#D58E64;" d="M98.326,159.613v37.038H26.898C26.898,181.66,64.521,159.613,98.326,159.613z"/><path style="fill:#D58E64;" d="M98.326,159.613v37.038h71.427C169.753,181.66,132.129,159.613,98.326,159.613z"/><path style="fill:#BF805A;" d="M98.326,159.613c-7.19,0-14.552,1.005-21.689,2.721c0.048,0.063,7.917,10.213,21.689,10.213 c12.754,0,21.233-8.692,22.462-10.03C113.41,160.686,105.775,159.613,98.326,159.613z"/><path style="fill:#FDCC9B;" d="M83.628,160.895c0,0,4.299,5.332,14.697,5.332c10.398,0,14.698-5.332,14.698-5.332 S97.774,155.344,83.628,160.895z"/><path style="fill:#86461B;" d="M98.325,139.11v13.669c-30.717,0-40.857-16.378-43.861-20.943 c-2.227-3.387,14.452,11.904,29.164,11.904C90.095,143.74,89.801,139.11,98.325,139.11z"/><path style="fill:#86461B;" d="M98.325,139.11v13.669c30.718,0,40.858-16.378,43.861-20.943 c2.227-3.387-14.452,11.904-29.164,11.904C106.556,143.74,106.85,139.11,98.325,139.11z"/><path style="fill:#86461B;" d="M98.712,48.207V0C48.354,0,38.948,18.813,36.596,54.086c-2.352,35.274,2.958,47.417,6.476,47.372 c3.518-0.046,1.627-40.44,6.458-49.136C58.349,36.449,74.113,48.207,98.712,48.207z"/><path style="fill:#86461B;" d="M98.712,48.207V0c50.358,0,59.764,18.813,62.116,54.086c2.352,35.274-2.958,47.417-6.476,47.372 c-3.518-0.046-1.627-40.44-6.458-49.136C139.076,36.449,123.311,48.207,98.712,48.207z"/><path style="fill:#744A25;" d="M67.014,165.109c-22.206,7.502-40.115,21.199-40.115,31.542h40.117v-31.542H67.014z"/><path style="fill:#573514;" d="M69.151,196.651v-33.805c0,0-5.732,2.205-7.716,3.233l-5.85,30.571H69.151z"/><path style="fill:#744A25;" d="M129.638,165.109c22.206,7.502,40.115,21.199,40.115,31.542h-40.117v-31.542H129.638z"/><path style="fill:#573514;" d="M127.5,196.651v-33.805c0,0,5.732,2.205,7.716,3.233l5.85,30.571H127.5z"/></symbol><symbol id="girl-1" viewBox="0 0 203.736 203.736"><title>girl-1</title><path style="fill:#543C2A;" d="M101.867,66.139v131.395h60.26c0,0,11.449-59.365,11.168-95.113 C173.014,66.673,101.867,66.139,101.867,66.139z"/><path style="fill:#543C2A;" d="M101.867,66.139v131.395H41.609c0,0-11.449-59.365-11.168-95.113 C30.721,66.673,101.867,66.139,101.867,66.139z"/><g> <g> <rect x="87.17" y="153.47" style="fill:#FDCC9B;" width="29.395" height="32.923"/> <path style="fill:#FCBC85;" d="M87.17,157.348c0,0,12.365,7.874,29.395,6.051v-9.929H87.17V157.348z"/> <ellipse style="fill:#FCBC85;" cx="44.784" cy="102.42" rx="14.343" ry="16.364"/> <ellipse style="fill:#FCBC85;" cx="158.952" cy="102.42" rx="14.343" ry="16.364"/> <path style="fill:#FDCC9B;" d="M158.894,71.165c0-24.104-17.637-41.741-57.026-41.741c-39.389,0-57.025,17.637-57.025,41.741 c0,24.104-4.115,87.597,57.025,87.597C163.009,158.762,158.894,95.269,158.894,71.165z"/> <g> <g> <ellipse style="fill:#3B2519;" cx="74.092" cy="98.502" rx="6.173" ry="6.761"/> <circle style="fill:#FFFFFF;" cx="71.401" cy="95.517" r="1.846"/> </g> <path style="fill:#684B37;" d="M64.217,83.925c2.919,1.117,7.605-3.798,18.335,0.478c1.956,0.78,3.123-6.668-8.378-6.668 C64.217,77.735,62.453,83.25,64.217,83.925z"/> <g> <ellipse style="fill:#3B2519;" cx="130.406" cy="98.502" rx="6.173" ry="6.761"/> <circle style="fill:#FFFFFF;" cx="127.715" cy="95.517" r="1.846"/> </g> <path style="fill:#684B37;" d="M139.519,83.925c-2.919,1.117-7.606-3.798-18.335,0.478c-1.956,0.78-3.123-6.668,8.377-6.668 C139.519,77.735,141.282,83.25,139.519,83.925z"/> </g> <path style="fill:#FCBC85;" d="M101.867,122.283c-6.099,0-9.773-4.557-9.773-2.352c0,2.204,1.764,6.394,9.773,6.394 c8.011,0,9.774-4.189,9.774-6.394C111.642,117.726,107.967,122.283,101.867,122.283z"/> <path style="fill:#FCBC85;" d="M101.867,142.553c-2.109,0-3.38-1.575-3.38-0.814c0,0.763,0.61,2.212,3.38,2.212 c2.771,0,3.381-1.449,3.381-2.212C105.248,140.978,103.978,142.553,101.867,142.553z"/> <path style="fill:#F7945E;" d="M101.867,136.936c-9.668,0-15.492-3.937-15.492-2.939s2.795,4.924,15.492,4.924 s15.493-3.927,15.493-4.924S111.535,136.936,101.867,136.936z"/> </g> <circle style="fill:#F9AA8D;" cx="66.154" cy="120.108" r="8.377"/> <circle style="fill:#F9AA8D;" cx="138.611" cy="120.108" r="8.377"/> </g><path style="fill:#F5A860;" d="M101.867,166.699v37.037H37.495C37.495,188.745,68.064,166.699,101.867,166.699z"/><path style="fill:#F5A860;" d="M101.867,166.699v37.037h64.373C166.24,188.745,135.672,166.699,101.867,166.699z"/><path style="fill:#F18B45;" d="M89.6,167.651c-0.189,0.027-0.379,0.065-0.569,0.094c-3.963,0.634-7.829,1.529-11.543,2.653 l24.38,33.338v-18.518L90.87,167.501C90.449,167.56,90.02,167.587,89.6,167.651z"/><path style="fill:#F18B45;" d="M114.135,167.651c0.19,0.027,0.38,0.065,0.57,0.094c3.963,0.634,7.829,1.529,11.543,2.653 l-24.381,33.338v-18.518l10.998-17.716C113.286,167.56,113.716,167.587,114.135,167.651z"/><path style="fill:#684B37;" d="M101.867,0C35.436,0,27.651,46.991,30.441,102.42c2.79,55.43,49.824,82.797,49.824,82.797 S27.56,109.79,71.401,43.651c0,0-8.232,14.157-7.786,26.015c0,0,10.328-3.527,38.253-3.527c27.926,0,38.253,3.527,38.253,3.527 c0.447-11.858-7.785-26.015-7.785-26.015c43.841,66.138-8.865,141.566-8.865,141.566s47.035-27.367,49.825-82.797 C176.085,46.991,168.3,0,101.867,0z"/><path style="fill:#FDCC9B;" d="M87.17,167.981l14.697,24.408l14.697-24.409C116.565,167.98,101.317,162.428,87.17,167.981z"/></symbol><symbol id="girl-2" viewBox="0 0 207.964 207.964"><title>girl-2</title><path style="fill:#432B1F;" d="M40.634,148.18c6.989,19.495-3.968,55.375-3.968,55.375h63.346V93.325l-69.52,13.325 C30.493,106.649,34.315,130.553,40.634,148.18z"/><path style="fill:#432B1F;" d="M159.452,148.18c-6.989,19.495,3.969,55.375,3.969,55.375h-63.347V93.325l69.519,13.325 C169.593,106.649,165.772,130.553,159.452,148.18z"/><g> <g> <rect x="85.315" y="157.699" style="fill:#FDCC9B;" width="29.395" height="32.922"/> <path style="fill:#FCBC85;" d="M85.315,161.577c0,0,12.365,7.874,29.395,6.05v-9.928H85.315V161.577z"/> <ellipse style="fill:#FCBC85;" cx="42.928" cy="106.649" rx="14.343" ry="16.364"/> <ellipse style="fill:#FCBC85;" cx="157.096" cy="106.649" rx="14.343" ry="16.364"/> <path style="fill:#FDCC9B;" d="M157.038,75.394c0-24.103-17.637-41.741-57.025-41.741c-39.39,0-57.026,17.637-57.026,41.741 c0,24.104-4.115,87.597,57.026,87.597C161.153,162.99,157.038,99.498,157.038,75.394z"/> <g> <g> <ellipse style="fill:#3B2519;" cx="72.237" cy="102.731" rx="6.173" ry="6.761"/> <circle style="fill:#FFFFFF;" cx="69.545" cy="99.746" r="1.846"/> </g> <path style="fill:#51362A;" d="M62.362,88.154c2.918,1.118,7.606-3.798,18.334,0.478c1.956,0.78,3.124-6.668-8.377-6.668 C62.362,81.964,60.598,87.479,62.362,88.154z"/> <g> <ellipse style="fill:#3B2519;" cx="128.55" cy="102.731" rx="6.173" ry="6.761"/> <circle style="fill:#FFFFFF;" cx="125.859" cy="99.746" r="1.847"/> </g> <path style="fill:#51362A;" d="M137.663,88.154c-2.919,1.118-7.605-3.798-18.335,0.478c-1.955,0.78-3.123-6.668,8.378-6.668 C137.663,81.964,139.426,87.479,137.663,88.154z"/> </g> <path style="fill:#FCBC85;" d="M100.012,126.511c-6.1,0-9.774-4.556-9.774-2.352c0,2.205,1.764,6.394,9.774,6.394 c8.01,0,9.773-4.189,9.773-6.394C109.786,121.955,106.112,126.511,100.012,126.511z"/> <path style="fill:#FCBC85;" d="M100.012,146.782c-2.109,0-3.381-1.576-3.381-0.813s0.61,2.211,3.381,2.211 s3.381-1.448,3.381-2.211S102.122,146.782,100.012,146.782z"/> <path style="fill:#F7945E;" d="M100.012,141.165c-9.668,0-15.493-3.936-15.493-2.939c0,0.998,2.796,4.924,15.493,4.924 c12.697,0,15.492-3.926,15.492-4.924C115.504,137.228,109.68,141.165,100.012,141.165z"/> </g> <circle style="fill:#F9AA8D;" cx="64.298" cy="124.336" r="8.378"/> <circle style="fill:#F9AA8D;" cx="136.756" cy="124.336" r="8.377"/> </g><path style="fill:#694B74;" d="M100.012,170.927v37.038H35.639C35.639,192.973,66.208,170.927,100.012,170.927z"/><path style="fill:#694B74;" d="M100.012,170.927v37.038h64.372C164.384,192.973,133.816,170.927,100.012,170.927z"/><path style="fill:#563C60;" d="M99.821,170.927c-7.271,0-14.715,1.005-21.933,2.72c0.049,0.063,8.006,10.214,21.933,10.214 c12.898,0,21.472-8.693,22.715-10.03C115.076,172,107.355,170.927,99.821,170.927z"/><path style="fill:#FDCC9B;" d="M85.315,172.209c0,0,4.299,5.332,14.697,5.332c10.398,0,14.697-5.332,14.697-5.332 S99.461,166.657,85.315,172.209z"/><path style="fill:#51362A;" d="M151.747,24.541C114.709-19.552,44.162-1.915,28.584,58.933 c-15.577,60.847,12.05,89.247,12.05,89.247C30.04,112.321,54.744,75.247,75.908,74.806c21.165-0.441,54.675-12.346,54.675-12.346 s5.625,28.622,23.81,39.132c13.669,7.9,8.477,31.122,4.949,46.588C172.569,143.149,211.712,42.619,151.747,24.541z"/></symbol><symbol id="girl-3" viewBox="0 0 206.612 206.612"><title>girl-3</title><path style="fill:#D65128;" d="M31.276,122.205c0,0,8.933,18.483,6.727,34.142c-2.204,15.659-14.607,23.035-19.898,13.228 c0,0-26.014,37.038,85.98,37.038V105.298L31.276,122.205z"/><path style="fill:#D65128;" d="M177.592,117.629c0,0-11.189,23.06-8.983,38.718c2.204,15.659,14.607,23.035,19.898,13.228 c0,0,26.014,37.038-85.98,37.038V105.298L177.592,117.629z"/><g> <g> <rect x="89.388" y="156.347" style="fill:#FDCC9B;" width="29.395" height="32.922"/> <path style="fill:#FCBC85;" d="M89.388,160.225c0,0,12.364,7.874,29.394,6.05v-9.928H89.388V160.225z"/> <ellipse style="fill:#916A50;" cx="47.001" cy="105.298" rx="14.343" ry="16.364"/> <ellipse style="fill:#916A50;" cx="161.169" cy="105.298" rx="14.343" ry="16.364"/> <path style="fill:#FDCC9B;" d="M161.111,74.042c0-24.104-17.637-41.741-57.025-41.741c-39.39,0-57.026,17.637-57.026,41.741 c0,24.104-4.115,87.597,57.026,87.597C165.226,161.638,161.111,98.146,161.111,74.042z"/> <g> <g> <ellipse style="fill:#3B2519;" cx="76.31" cy="101.379" rx="6.173" ry="6.761"/> <circle style="fill:#FFFFFF;" cx="73.618" cy="98.394" r="1.846"/> </g> <path style="fill:#D96E27;" d="M66.434,86.802c2.919,1.118,7.606-3.798,18.335,0.478c1.956,0.78,3.124-6.668-8.377-6.668 C66.434,80.612,64.67,86.127,66.434,86.802z"/> <g> <ellipse style="fill:#3B2519;" cx="132.624" cy="101.379" rx="6.173" ry="6.761"/> <circle style="fill:#FFFFFF;" cx="129.932" cy="98.394" r="1.847"/> </g> <path style="fill:#D96E27;" d="M141.736,86.802c-2.919,1.118-7.605-3.798-18.335,0.478c-1.956,0.78-3.123-6.668,8.378-6.668 C141.736,80.612,143.5,86.127,141.736,86.802z"/> </g> <path style="fill:#FCBC85;" d="M104.086,125.159c-6.1,0-9.774-4.556-9.774-2.352c0,2.205,1.764,6.394,9.774,6.394 c8.01,0,9.773-4.189,9.773-6.394C113.859,120.603,110.185,125.159,104.086,125.159z"/> <path style="fill:#FCBC85;" d="M104.086,145.43c-2.109,0-3.381-1.576-3.381-0.813c0,0.763,0.61,2.211,3.381,2.211 c2.771,0,3.38-1.448,3.38-2.211C107.465,143.854,106.195,145.43,104.086,145.43z"/> <path style="fill:#F7945E;" d="M104.086,139.813c-9.668,0-15.493-3.936-15.493-2.939c0,0.997,2.796,4.924,15.493,4.924 c12.697,0,15.492-3.926,15.492-4.924C119.578,135.876,113.753,139.813,104.086,139.813z"/> </g> <circle style="fill:#F9AA8D;" cx="68.372" cy="122.984" r="8.378"/> <circle style="fill:#F9AA8D;" cx="140.829" cy="122.984" r="8.377"/> </g><path style="fill:#F6A2B1;" d="M104.086,169.575v37.038H39.712C39.712,191.621,70.281,169.575,104.086,169.575z"/><path style="fill:#F6A2B1;" d="M104.086,169.575v37.038h64.372C168.458,191.621,137.889,169.575,104.086,169.575z"/><path style="fill:#FDCC9B;" d="M89.388,170.857l14.697,26.276c0.879,0,14.697-26.276,14.697-26.276S103.535,165.305,89.388,170.857 z"/><path style="fill:#F38191;" d="M89.388,166.55l8.535,8.928l6.162,21.655l-8.818-13.228l-9.921,5.365l-8.597-15.461 C76.75,173.808,84.17,167.052,89.388,166.55z"/><path style="fill:#F38191;" d="M118.783,166.55l-8.536,8.928l-6.161,21.655l8.818-13.228l9.92,5.365l8.598-15.461 C131.421,173.808,124.001,167.052,118.783,166.55z"/><polygon style="fill:#F38191;" points="104.086,206.612 104.086,197.133 99.235,189.858 "/><polygon style="fill:#F38191;" points="104.086,206.612 104.086,197.133 108.544,189.858 "/><path style="fill:#D96E27;" d="M146.826,17.016c0,0-35.313-26.675-78.454-13.227C27.35,16.575,26.483,70.81,27.805,101.381 c1.323,30.571,11.907,34.244,22.487,29.981c13.994-5.638,0-23.222,0-23.222c6.614-6.761,3.969-19.206,3.969-19.206 c10.361-0.384,14.11-17.244,14.11-17.244c20.156,7.769,25.939-7.496,25.939-7.496c18.886,10.141,33.774-7.937,33.774-7.937 s9.303,19.342,21.121,17.196c0,0-3.107,18.597,4.262,21.165c0,0-7.895,23.81,2.446,31.085c10.341,7.275,27.096,0.042,26.655-36.77 C182.128,52.122,175.512,13.488,146.826,17.016z"/></symbol></svg>