<?xml version="1.0" encoding="UTF-8" standalone="no"?>
<!-- Generator: Adobe Illustrator 13.0.0, SVG Export Plug-In . SVG Version: 6.00 Build 14948)  -->
<svg id="svg2465" xmlns:rdf="http://www.w3.org/1999/02/22-rdf-syntax-ns#" xmlns="http://www.w3.org/2000/svg" enable-background="new 0 0 190.931 190.931" xml:space="preserve" height="190.93px" width="190.93px" version="1.1" y="0px" x="0px" xmlns:cc="http://web.resource.org/cc/" xmlns:dc="http://purl.org/dc/elements/1.1/" viewBox="0 0 190.931 190.931"><metadata id="metadata2631"><rdf:RDF><cc:Work rdf:about=""><dc:format>image/svg+xml</dc:format><dc:type rdf:resource="http://purl.org/dc/dcmitype/StillImage"/></cc:Work></rdf:RDF></metadata>
<g id="Layer_1">
	<g id="g2468">
		<rect id="rect2470" height="189.93" width="189.93" y=".5" x=".5" fill="#fff"/>
		<g id="g2472" fill="#e6e6e6">
			<path id="path2315_2_" d="m1.645 156.62l14.409-4.24c3.869-0.37 13.453-6 14.485-6.43 4.103-1.7 12.388-3.45 14.034-5.1 9.565-0.79 10.311-1.34 15.326-8.99 6.436-9.82 1.295-26.37-4.865-33.479-3.155-3.636-1.924-8.1-4.33-16.44-1.746-6.05-0.863-11.982-1.916-12.632-3.861-2.389-4.981-20.431-1.656-26.662 1.751-3.284 4.778-9.623 6.726-14.088 2.357-5.401 4.96-8.118 7.772-8.118 2.326 0 4.229-0.752 4.229-1.673 0-4.337 15.267-9.701 24.61-8.649 10.601 1.195 29.511 9.449 29.511 12.882 0 1.194 1.95 4.647 4.33 7.677 2.38 3.027 4.33 7.214 4.33 9.31 0 2.095 1.58 4.411 3.51 5.149 3.07 1.179 3.31 4.237 1.92 24.546-1.41 20.731-2.13 23.671-6.75 27.641-4.34 3.726-7.88 9.166-7.88 19.626 0 8.93 1.1 13.57 3.81 16.39 7.06 7.36 23.9 12.13 33.61 13.6 5.32 0.81 6.89 1.98 10.17 2.61l23.4 13.1-0.91 7.78-0.08 18.88h-93.35-94.529l0.084-32.69z" nodetypes="ccssssssssssssssssssssccccccc" fill="#e6e6e6"/>
		</g>
	</g>
</g>
</svg>
